<svg width="15" height="15" viewBox="0 0 15 15" fill="none" xmlns="http://www.w3.org/2000/svg">
<path d="M2.94587 4.45507L2.79176 4.80862C2.67898 5.06745 2.32098 5.06745 2.2082 4.80862L2.0541 4.45507C1.77941 3.82467 1.28466 3.32276 0.667294 3.04817L0.192529 2.83701C-0.0641764 2.72283 -0.0641764 2.34926 0.192529 2.23507L0.64075 2.03571C1.27399 1.75407 1.77761 1.23358 2.04757 0.581767L2.20582 0.199709C2.31611 -0.0665695 2.68386 -0.0665695 2.79414 0.199709L2.95239 0.581767C3.22236 1.23358 3.72599 1.75407 4.35925 2.03571L4.80743 2.23507C5.06419 2.34926 5.06419 2.72283 4.80743 2.83701L4.33267 3.04817C3.71532 3.32276 3.22055 3.82467 2.94587 4.45507ZM9.5715 5.95803L9.66031 6.04682C10.4696 6.88625 10.8316 8.11675 10.5079 9.32506C10.1027 10.8371 8.73137 11.874 7.1885 11.874C5.91608 11.874 4.24279 11.4829 2.83037 10.9276C3.58406 10.0435 3.85889 9.17188 3.95531 8.00313C3.97859 7.721 3.99313 7.60881 4.01991 7.50887C4.51588 5.65788 6.2605 4.62822 8.07719 5.11499C8.65931 5.27098 9.16631 5.56739 9.5715 5.95803ZM11.3924 1.48206L8.30538 3.88306C5.8389 3.27452 3.47402 4.71654 2.8125 7.18538C2.74891 7.42269 2.72904 7.66375 2.70823 7.91625C2.63643 8.78744 2.55346 9.79419 0.625 11.2479C2.1875 12.1854 5 13.124 7.1885 13.124C9.25887 13.124 11.1539 11.7435 11.7153 9.64856C11.9272 8.85744 11.9236 8.05937 11.7404 7.31669L14.1408 4.23049C14.3343 3.98169 14.3123 3.62772 14.0894 3.40484L12.218 1.53347C11.9951 1.31059 11.6412 1.28855 11.3924 1.48206ZM10.5595 5.17825C10.5199 5.1372 10.4796 5.09684 10.4384 5.05718L9.73556 4.35428L11.7243 2.80749L12.8154 3.89859L11.2686 5.88732L10.5595 5.17825Z" fill="#276304"/>
</svg>
