<svg width="33" height="29" viewBox="0 0 33 29" fill="none" xmlns="http://www.w3.org/2000/svg">
<path d="M7.2353 5.95455H4.63636C3.31818 5.95455 2 6.61364 2 8.59091V23.0909C2 25.0682 2.65909 26.1089 5.29545 26.3864C15.3136 27.4409 24.4091 26.8258 27.7045 26.3864C31 25.7273 31 24.4091 31 23.0909V7.93182C31 6.35 29.6818 5.95455 29.0227 5.95455H25.7647C24.8967 5.95455 24.0643 5.60974 23.4505 4.99599L21.4131 2.95856C20.7994 2.3448 19.9669 2 19.0989 2H13.9011C13.0331 2 12.2007 2.3448 11.5869 2.95856L9.54947 4.99599C8.93571 5.60974 8.10328 5.95455 7.2353 5.95455Z" stroke="#00051D" stroke-width="2.18182"/>
<circle cx="16.5001" cy="15.1817" r="5.5" stroke="#00051D" stroke-width="2.18182"/>
</svg>
