<svg width="22" height="22" viewBox="0 0 22 22" fill="none" xmlns="http://www.w3.org/2000/svg">
<path d="M6.41648 5.50001V2.75001C6.41648 2.24375 6.82689 1.83334 7.33315 1.83334H18.3331C18.8394 1.83334 19.2498 2.24375 19.2498 2.75001V15.5833C19.2498 16.0896 18.8394 16.5 18.3331 16.5H15.5831V19.2492C15.5831 19.7559 15.1707 20.1667 14.6603 20.1667H3.67277C3.16304 20.1667 2.75 19.7591 2.75 19.2492L2.75238 6.41747C2.75247 5.91078 3.16492 5.50001 3.6753 5.50001H6.41648ZM4.58555 7.33334L4.58351 18.3333H13.7498V7.33334H4.58555ZM8.24982 5.50001H15.5831V14.6667H17.4165V3.66668H8.24982V5.50001Z" fill="#00051D"/>
</svg>
