<svg width="20" height="20" viewBox="0 0 20 20" fill="none" xmlns="http://www.w3.org/2000/svg">
<path d="M13.1986 7.94447C12.7649 7.5337 12.4859 6.98613 12.4085 6.39384L12.0056 3.31138L9.275 4.79724C8.7503 5.08274 8.1433 5.17888 7.55608 5.06948L4.49998 4.50015L5.06931 7.55625C5.17871 8.1435 5.08257 8.7505 4.79707 9.2751L3.31121 12.0057L6.39367 12.4086C6.98596 12.4861 7.53353 12.7651 7.94431 13.1987L10.0821 15.4557L11.4178 12.6486C11.6745 12.1092 12.109 11.6747 12.6484 11.418L15.4555 10.0823L13.1986 7.94447ZM13.2238 13.5079L11.0111 18.1581C10.8687 18.4573 10.5107 18.5844 10.2115 18.442C10.1448 18.4103 10.0845 18.3665 10.0337 18.3129L6.49229 14.5741C6.39749 14.474 6.27113 14.4096 6.13445 14.3918L1.02816 13.7243C0.699578 13.6814 0.468038 13.3802 0.510988 13.0516C0.520558 12.9784 0.543588 12.9075 0.578898 12.8426L3.04031 8.3192C3.1062 8.1981 3.12839 8.058 3.10314 7.92253L2.16 2.85991C2.09931 2.53414 2.3142 2.22086 2.63997 2.16017C2.7126 2.14664 2.78711 2.14664 2.85974 2.16017L7.92237 3.10331C8.0579 3.12855 8.198 3.10637 8.319 3.04048L12.8424 0.579071C13.1335 0.420681 13.4979 0.528251 13.6562 0.819311C13.6916 0.884211 13.7146 0.955071 13.7241 1.02833L14.3916 6.13462C14.4095 6.2713 14.4739 6.39766 14.5739 6.49245L18.3127 10.0338C18.5533 10.2617 18.5636 10.6415 18.3357 10.8821C18.2849 10.9357 18.2246 10.9795 18.1579 11.0112L13.5078 13.224C13.3833 13.2832 13.283 13.3835 13.2238 13.5079ZM14.0206 15.435L15.4348 14.0208L19.6775 18.2634L18.2633 19.6776L14.0206 15.435Z" fill="#00051D"/>
</svg>
