<svg width="45" height="45" viewBox="0 0 45 45" fill="none" xmlns="http://www.w3.org/2000/svg">
<path d="M13.125 5.625C12.0895 5.625 11.25 6.46447 11.25 7.5V13.125H5.625C4.58947 13.125 3.75 13.9645 3.75 15V37.5C3.75 38.5356 4.58947 39.375 5.625 39.375H31.875C32.9106 39.375 33.75 38.5356 33.75 37.5V31.875H39.375C40.4106 31.875 41.25 31.0356 41.25 30V7.5C41.25 6.46447 40.4106 5.625 39.375 5.625H13.125ZM31.875 13.125H15V9.375H37.5V28.125H33.75V15C33.75 13.9645 32.9106 13.125 31.875 13.125ZM30 16.875V29.5114L21.5458 21.8258L7.5 34.9352V16.875H30ZM21.5792 26.9242L30 34.5795V35.625H12.2569L21.5792 26.9242ZM13.125 25.3125C14.6783 25.3125 15.9375 24.0532 15.9375 22.5C15.9375 20.9467 14.6783 19.6875 13.125 19.6875C11.5717 19.6875 10.3125 20.9467 10.3125 22.5C10.3125 24.0532 11.5717 25.3125 13.125 25.3125Z" fill="white"/>
</svg>
