<svg width="20" height="19" viewBox="0 0 20 19" fill="none" xmlns="http://www.w3.org/2000/svg">
<path d="M4.12422 6.2371L3.90847 6.73207C3.75057 7.09443 3.24937 7.09443 3.09148 6.73207L2.87574 6.2371C2.49118 5.35454 1.79852 4.65186 0.934211 4.26744L0.269541 3.97182C-0.089847 3.81196 -0.089847 3.28896 0.269541 3.1291L0.89705 2.85C1.78358 2.4557 2.48865 1.72701 2.8666 0.814474L3.08815 0.279592C3.24256 -0.0931973 3.7574 -0.0931973 3.9118 0.279592L4.13334 0.814474C4.5113 1.72701 5.21638 2.4557 6.10295 2.85L6.73039 3.1291C7.08987 3.28896 7.08987 3.81196 6.73039 3.97182L6.06574 4.26744C5.20145 4.65186 4.50877 5.35454 4.12422 6.2371ZM13.4001 8.34124L13.5244 8.46555C14.6574 9.64075 15.1643 11.3635 14.711 13.0551C14.1438 15.1719 12.2239 16.6236 10.0639 16.6236C8.28251 16.6236 5.93991 16.076 3.96252 15.2986C5.01768 14.0609 5.40245 12.8406 5.53744 11.2044C5.57002 10.8094 5.59038 10.6523 5.62787 10.5124C6.32223 7.92103 8.7647 6.47951 11.3081 7.16099C12.123 7.37937 12.8328 7.79435 13.4001 8.34124ZM15.9493 2.07489L11.6275 5.43628C8.17446 4.58433 4.86363 6.60315 3.9375 10.0595C3.84848 10.3918 3.82066 10.7292 3.79152 11.0828C3.691 12.3024 3.57485 13.7119 0.875 15.747C3.0625 17.0595 7 18.3736 10.0639 18.3736C12.9624 18.3736 15.6155 16.4409 16.4014 13.508C16.6982 12.4004 16.6931 11.2831 16.4366 10.2434L19.7971 5.92269C20.068 5.57436 20.0372 5.07881 19.7251 4.76677L17.1052 2.14686C16.7932 1.83482 16.2977 1.80397 15.9493 2.07489ZM14.7833 7.24955C14.7279 7.19208 14.6714 7.13557 14.6138 7.08005L13.6298 6.09599L16.414 3.93048L17.9415 5.45802L15.776 8.24225L14.7833 7.24955Z" fill="#00051D"/>
</svg>
