<svg width="27" height="27" viewBox="0 0 27 27" fill="none" xmlns="http://www.w3.org/2000/svg">
<path d="M13.5011 5.0946C16.1437 2.7225 20.2275 2.80125 22.7729 5.35203C25.3185 7.90281 25.4059 11.9666 23.0384 14.6171L13.4999 24.1706L3.96155 14.6171C1.59418 11.9666 1.68267 7.89639 4.22703 5.35203C6.77426 2.80479 10.8508 2.71898 13.5011 5.0946ZM21.1804 6.94136C19.4939 5.25143 16.771 5.18289 15.0041 6.76898L13.5021 8.11715L11.9994 6.77004C10.2273 5.18172 7.50944 5.25159 5.81801 6.94302C4.14206 8.61897 4.05792 11.3032 5.60242 13.0761L13.4999 20.9861L21.3976 13.0761C22.9427 11.3025 22.8589 8.62341 21.1804 6.94136Z" fill="#00051D"/>
</svg>
