<svg width="22" height="22" viewBox="0 0 22 22" fill="none" xmlns="http://www.w3.org/2000/svg">
<path d="M10.9998 21.8333C5.01675 21.8333 0.166504 16.983 0.166504 11C0.166504 5.0169 5.01675 0.166656 10.9998 0.166656C16.9829 0.166656 21.8332 5.0169 21.8332 11C21.8332 16.983 16.9829 21.8333 10.9998 21.8333ZM8.51902 19.3063C7.47622 17.0947 6.83693 14.6554 6.69609 12.0833H2.40022C2.82934 15.5245 5.27593 18.3392 8.51902 19.3063ZM8.86643 12.0833C9.02936 14.7254 9.78412 17.2072 10.9998 19.398C12.2156 17.2072 12.9703 14.7254 13.1332 12.0833H8.86643ZM19.5994 12.0833H15.3036C15.1628 14.6554 14.5235 17.0947 13.4807 19.3063C16.7237 18.3392 19.1703 15.5245 19.5994 12.0833ZM2.40022 9.91666H6.69609C6.83693 7.34457 7.47622 4.90523 8.51902 2.6936C5.27593 3.66076 2.82934 6.47545 2.40022 9.91666ZM8.86643 9.91666H13.1332C12.9703 7.27464 12.2156 4.79276 10.9998 2.60198C9.78412 4.79276 9.02936 7.27464 8.86643 9.91666ZM13.4807 2.6936C14.5235 4.90523 15.1628 7.34457 15.3036 9.91666H19.5994C19.1703 6.47545 16.7237 3.66076 13.4807 2.6936Z" fill="#00051D"/>
</svg>
