<svg width="16" height="16" viewBox="0 0 16 16" fill="none" xmlns="http://www.w3.org/2000/svg">
<path d="M8.70665 5.40732L9.64945 6.35012C11.4719 8.1726 11.4719 11.1273 9.64945 12.9498L9.41378 13.1855C7.59131 15.0079 4.63655 15.0079 2.8141 13.1855C0.991654 11.3631 0.991654 8.40827 2.8141 6.58583L3.75691 7.52867C2.45517 8.8304 2.45517 10.9409 3.75691 12.2427C5.05866 13.5444 7.16918 13.5444 8.47098 12.2427L8.70665 12.007C10.0084 10.7052 10.0084 8.59467 8.70665 7.29294L7.76385 6.35012L8.70665 5.40732ZM13.185 9.41427L12.2422 8.47147C13.5439 7.16967 13.5439 5.05915 12.2422 3.7574C10.9404 2.45566 8.82991 2.45566 7.52818 3.7574L7.29245 3.9931C5.9907 5.29485 5.9907 7.4054 7.29245 8.70714L8.23525 9.64994L7.29245 10.5927L6.34963 9.64994C4.52719 7.82754 4.52719 4.87274 6.34963 3.0503L6.58534 2.81459C8.40778 0.992142 11.3626 0.992142 13.185 2.81459C15.0074 4.63704 15.0074 7.5918 13.185 9.41427Z" fill="#00051D"/>
</svg>
