<svg width="21" height="21" viewBox="0 0 21 21" fill="none" xmlns="http://www.w3.org/2000/svg">
<path d="M15.75 7H17.5C17.9833 7 18.375 7.39176 18.375 7.875V18.375C18.375 18.8583 17.9833 19.25 17.5 19.25H3.5C3.01675 19.25 2.625 18.8583 2.625 18.375V7.875C2.625 7.39176 3.01675 7 3.5 7H5.25V6.125C5.25 3.2255 7.6005 0.875 10.5 0.875C13.3995 0.875 15.75 3.2255 15.75 6.125V7ZM14 7V6.125C14 4.192 12.433 2.625 10.5 2.625C8.567 2.625 7 4.192 7 6.125V7H14ZM6.125 9.625V11.375H7.875V9.625H6.125ZM6.125 12.25V14H7.875V12.25H6.125ZM6.125 14.875V16.625H7.875V14.875H6.125Z" fill="black"/>
</svg>
