<svg width="27" height="27" viewBox="0 0 27 27" fill="none" xmlns="http://www.w3.org/2000/svg">
<path d="M7.875 3.375C7.25368 3.375 6.75 3.87868 6.75 4.5V7.875H3.375C2.75368 7.875 2.25 8.37868 2.25 9V22.5C2.25 23.1213 2.75368 23.625 3.375 23.625H19.125C19.7463 23.625 20.25 23.1213 20.25 22.5V19.125H23.625C24.2463 19.125 24.75 18.6213 24.75 18V4.5C24.75 3.87868 24.2463 3.375 23.625 3.375H7.875ZM19.125 7.875H9V5.625H22.5V16.875H20.25V9C20.25 8.37868 19.7463 7.875 19.125 7.875ZM18 10.125V17.7068L12.9275 13.0954L4.5 20.9611V10.125H18ZM12.9475 16.1546L18 20.7477V21.375H7.35415L12.9475 16.1546ZM7.875 15.1875C8.80698 15.1875 9.5625 14.4319 9.5625 13.5C9.5625 12.5681 8.80698 11.8125 7.875 11.8125C6.94302 11.8125 6.1875 12.5681 6.1875 13.5C6.1875 14.4319 6.94302 15.1875 7.875 15.1875Z" fill="#00051D"/>
</svg>
