<svg width="16" height="16" viewBox="0 0 16 16" fill="none" xmlns="http://www.w3.org/2000/svg">
<path d="M0.416504 15.5834C0.416504 12.4537 2.95356 9.91671 6.08317 9.91671C9.2128 9.91671 11.7498 12.4537 11.7498 15.5834H10.3332C10.3332 13.2362 8.43037 11.3334 6.08317 11.3334C3.73596 11.3334 1.83317 13.2362 1.83317 15.5834H0.416504ZM6.08317 9.20837C3.73505 9.20837 1.83317 7.3065 1.83317 4.95837C1.83317 2.61025 3.73505 0.708374 6.08317 0.708374C8.4313 0.708374 10.3332 2.61025 10.3332 4.95837C10.3332 7.3065 8.4313 9.20837 6.08317 9.20837ZM6.08317 7.79171C7.64859 7.79171 8.9165 6.52379 8.9165 4.95837C8.9165 3.39296 7.64859 2.12504 6.08317 2.12504C4.51775 2.12504 3.24984 3.39296 3.24984 4.95837C3.24984 6.52379 4.51775 7.79171 6.08317 7.79171ZM11.9508 10.4145C13.9205 11.3023 15.2915 13.2827 15.2915 15.5834H13.8748C13.8748 13.8579 12.8465 12.3726 11.3693 11.7067L11.9508 10.4145ZM11.4638 2.41773C12.8792 3.00127 13.8748 4.39426 13.8748 6.02087C13.8748 8.05393 12.3195 9.72206 10.3332 9.90084V8.47497C11.535 8.30327 12.4582 7.27037 12.4582 6.02087C12.4582 5.04291 11.8926 4.19765 11.0705 3.79412L11.4638 2.41773Z" fill="#FF2B00"/>
</svg>
