<svg width="18" height="20" viewBox="0 0 18 20" fill="none" xmlns="http://www.w3.org/2000/svg">
<path d="M8.9999 15C12.6623 15 15.8649 16.5751 17.607 18.9247L15.765 19.796C14.3473 18.1157 11.8473 17 8.9999 17C6.15248 17 3.65252 18.1157 2.23479 19.796L0.393555 18.9238C2.13576 16.5747 5.33796 15 8.9999 15ZM8.9999 0C11.7613 0 13.9999 2.23858 13.9999 5V8C13.9999 10.6888 11.8776 12.8818 9.2168 12.9954L8.9999 13C6.23847 13 3.9999 10.7614 3.9999 8V5C3.9999 2.31125 6.1222 0.11818 8.783 0.00462008L8.9999 0ZM8.9999 2C7.4022 2 6.09623 3.24892 6.00499 4.82373L5.9999 5V8C5.9999 9.6569 7.343 11 8.9999 11C10.5976 11 11.9036 9.7511 11.9948 8.1763L11.9999 8V5C11.9999 3.34315 10.6567 2 8.9999 2Z" fill="#00051D"/>
</svg>
