<svg width="22" height="20" viewBox="0 0 22 20" fill="none" xmlns="http://www.w3.org/2000/svg">
<path d="M2.49709 7.06464L3.78355 17.9996H18.2266L19.513 7.06464L15.5032 9.7379L11.0051 3.44051L6.50694 9.7379L2.49709 7.06464ZM1.80577 4.20006L6.00505 6.99958L10.1913 1.13881C10.5123 0.689399 11.1369 0.585309 11.5863 0.906309C11.6761 0.970449 11.7546 1.04901 11.8188 1.13881L16.0051 6.99958L20.2043 4.20006C20.6639 3.89371 21.2847 4.01788 21.5911 4.47741C21.7228 4.67503 21.7799 4.91308 21.7522 5.14895L20.109 19.1164C20.0497 19.62 19.6229 19.9996 19.1158 19.9996H2.8943C2.38722 19.9996 1.9604 19.62 1.90115 19.1164L0.257922 5.14895C0.193392 4.60045 0.585732 4.10349 1.13423 4.03896C1.37011 4.01121 1.60816 4.06832 1.80577 4.20006ZM11.0051 13.9996C9.9005 13.9996 9.0051 13.1042 9.0051 11.9996C9.0051 10.895 9.9005 9.9996 11.0051 9.9996C12.1096 9.9996 13.0051 10.895 13.0051 11.9996C13.0051 13.1042 12.1096 13.9996 11.0051 13.9996Z" fill="#00051D"/>
</svg>
