<svg width="16" height="16" viewBox="0 0 16 16" fill="none" xmlns="http://www.w3.org/2000/svg">
<path d="M7.3335 1.33337C10.6455 1.33337 13.3335 4.02137 13.3335 7.33337C13.3335 10.6454 10.6455 13.3334 7.3335 13.3334C4.0215 13.3334 1.3335 10.6454 1.3335 7.33337C1.3335 4.02137 4.0215 1.33337 7.3335 1.33337ZM7.3335 12C9.91183 12 12.0002 9.91171 12.0002 7.33337C12.0002 4.75504 9.91183 2.66671 7.3335 2.66671C4.75516 2.66671 2.66683 4.75504 2.66683 7.33337C2.66683 9.91171 4.75516 12 7.3335 12ZM12.9904 12.0474L14.876 13.933L13.9332 14.8758L12.0476 12.9902L12.9904 12.0474Z" fill="#C9C9C9"/>
</svg>
