<svg width="22" height="22" viewBox="0 0 22 22" fill="none" xmlns="http://www.w3.org/2000/svg">
<path d="M7.68637 3.00008L10.293 0.393483C10.6835 0.00295344 11.3167 0.00295344 11.7072 0.393483L14.3138 3.00008H18.0001C18.5524 3.00008 19.0001 3.4478 19.0001 4.00008V7.68637L21.6067 10.293C21.9972 10.6835 21.9972 11.3167 21.6067 11.7072L19.0001 14.3138V18.0001C19.0001 18.5524 18.5524 19.0001 18.0001 19.0001H14.3138L11.7072 21.6067C11.3167 21.9972 10.6835 21.9972 10.293 21.6067L7.68637 19.0001H4.00008C3.4478 19.0001 3.00008 18.5524 3.00008 18.0001V14.3138L0.393483 11.7072C0.00295344 11.3167 0.00295344 10.6835 0.393483 10.293L3.00008 7.68637V4.00008C3.00008 3.4478 3.4478 3.00008 4.00008 3.00008H7.68637ZM11.0001 14.0001C12.6569 14.0001 14.0001 12.6569 14.0001 11.0001C14.0001 9.3432 12.6569 8.00008 11.0001 8.00008C9.3432 8.00008 8.00008 9.3432 8.00008 11.0001C8.00008 12.6569 9.3432 14.0001 11.0001 14.0001Z" fill="white"/>
</svg>
