<svg width="18" height="18" viewBox="0 0 18 18" fill="none" xmlns="http://www.w3.org/2000/svg">
<path d="M7.15298 9.75L5.4977 9.75068C5.18864 10.6242 4.35539 11.25 3.37598 11.25C2.13333 11.25 1.12598 10.2427 1.12598 9C1.12598 7.75733 2.13333 6.75 3.37598 6.75C4.35566 6.75 5.18911 7.37614 5.49797 8.25008L7.15298 8.25L9.75099 3.75L12.1289 3.75007C12.4379 2.87614 13.2713 2.25 14.251 2.25C15.4936 2.25 16.501 3.25736 16.501 4.5C16.501 5.74264 15.4936 6.75 14.251 6.75C13.2716 6.75 12.4383 6.12421 12.1292 5.25067L10.6165 5.25L8.45199 8.99925L10.6172 12.75L12.1289 12.7501C12.4379 11.8762 13.2713 11.25 14.251 11.25C15.4936 11.25 16.501 12.2573 16.501 13.5C16.501 14.7427 15.4936 15.75 14.251 15.75C13.2716 15.75 12.4383 15.1242 12.1292 14.2507L9.75099 14.25L7.15298 9.75ZM14.251 12.75C13.8368 12.75 13.501 13.0858 13.501 13.5C13.501 13.9142 13.8368 14.25 14.251 14.25C14.6652 14.25 15.001 13.9142 15.001 13.5C15.001 13.0858 14.6652 12.75 14.251 12.75ZM3.37598 8.25C2.96176 8.25 2.62598 8.58577 2.62598 9C2.62598 9.41423 2.96176 9.75 3.37598 9.75C3.79019 9.75 4.12598 9.41423 4.12598 9C4.12598 8.58577 3.79019 8.25 3.37598 8.25ZM14.251 3.75C13.8368 3.75 13.501 4.08579 13.501 4.5C13.501 4.91421 13.8368 5.25 14.251 5.25C14.6652 5.25 15.001 4.91421 15.001 4.5C15.001 4.08579 14.6652 3.75 14.251 3.75Z" fill="black"/>
</svg>
