<svg width="16" height="16" viewBox="0 0 16 16" fill="none" xmlns="http://www.w3.org/2000/svg">
<path d="M7.99991 1.99999C6.89531 1.99999 5.99988 2.89542 5.99988 3.99999V6.66666C5.99988 7.77126 6.89531 8.66666 7.99991 8.66666C9.10444 8.66666 9.99991 7.77126 9.99991 6.66666V3.99999C9.99991 2.89542 9.10444 1.99999 7.99991 1.99999ZM7.99991 0.666656C9.84084 0.666656 11.3332 2.15904 11.3332 3.99999V6.66666C11.3332 8.50759 9.84084 9.99999 7.99991 9.99999C6.15893 9.99999 4.66655 8.50759 4.66655 6.66666V3.99999C4.66655 2.15904 6.15893 0.666656 7.99991 0.666656ZM2.0365 7.33332H3.38047C3.70396 9.59486 5.6489 11.3333 7.99991 11.3333C10.3508 11.3333 12.2958 9.59486 12.6193 7.33332H13.9632C13.6558 10.1144 11.4476 12.3226 8.66657 12.6301V15.3333H7.33324V12.6301C4.55213 12.3226 2.34393 10.1144 2.0365 7.33332Z" fill="#141414"/>
</svg>
